<svg width="20" height="20" viewBox="-2 -5 28 50" fill="none" xmlns="http://www.w3.org/2000/svg">
<path d="M7.82134 18.0087C9.51525 13.9522 11.699 10.134 13.1736 5.98024C13.3651 5.44067 13.6175 3.51587 14.1032 3.07877C14.6545 2.58253 14.1534 4.56408 14.1032 5.30417C13.7657 10.2746 12.6392 15.1823 12.1876 20.1496C11.8402 23.9716 12.2108 27.8975 11.4834 31.6709C11.1685 33.3044 9.88625 32.6779 8.32839 32.7696C7.07142 32.8435 5.83394 33.0501 4.58183 33.1639C4.0848 33.2091 2.62815 33.0847 3.08884 33.2766C4.27683 33.7716 5.87003 33.8105 7.11709 34.0372C9.20373 34.4166 11.2767 34.8207 13.3989 34.9386C15.4702 35.0537 17.752 34.6813 19.7371 35.2485" stroke="black" stroke-width="5" stroke-linecap="round"/>
</svg>
