<svg width="20" height="20" viewBox="5 -10 28 50" fill="none" xmlns="http://www.w3.org/2000/svg">
<path d="M3 5.4421C11.023 5.4421 18.9436 5.37584 26.8878 4.07587C27.9552 3.90122 29.0612 3.72055 30.1133 3.44206C30.4715 3.34724 30.7899 2.90234 31.1415 3.01951C31.8218 3.2463 30.0865 4.00389 29.4795 4.38574C25.197 7.07955 20.996 9.88789 16.7468 12.6254C16.2563 12.9413 13.6055 13.8999 15.5637 13.7521C17.7523 13.587 19.9314 13.4191 22.1272 13.3578C24.7403 13.2847 27.7564 12.9315 30.3245 13.6113C32.9653 14.3103 34.0677 16.8689 33.5077 19.4142C33.1729 20.9362 32.1777 22.0683 31.0992 23.1467C28.457 25.7889 25.3629 27.938 21.8737 29.3018C18.5378 30.6056 15.1208 31.0552 11.6199 31.5554" stroke="black" stroke-width="5" stroke-linecap="round"/>
</svg>
