<svg width="20" height="20" viewBox="5 -10 28 50" fill="none" xmlns="http://www.w3.org/2000/svg">
<path d="M6.27802 4.97454C9.3901 4.59348 12.5337 4.17953 15.6209 3.56416C16.6293 3.36316 19.5266 2.91031 16.7728 3.01568C14.4828 3.1033 12.2024 3.44944 9.91278 3.57983C9.27063 3.6164 8.94601 3.78389 8.45375 4.12831C7.14783 5.04204 6.20076 5.9221 4.69101 6.51028C4.41448 6.61802 3.617 6.49797 3.41116 6.71401C2.72896 7.42999 3.07805 10.7942 3.18079 11.7287C3.35446 13.3084 3.81862 14.7359 4.43504 16.1322C4.84123 17.0523 7.56827 14.8313 8.17219 14.5651C11.2378 13.2138 14.0794 13.1547 17.3103 13.1547C19.6366 13.1547 21.9736 13.0838 24.2982 13.2174C25.3378 13.2772 26.5219 13.3242 27.4211 14.0636C28.8166 15.2113 29.7756 17.6634 29.9552 19.6425C30.2786 23.2062 28.8262 25.3176 26.4484 27.2585C22.0105 30.8811 16.4374 32.3554 11.1414 31.9284C9.2946 31.7795 7.71114 31.201 6.27802 29.7972" stroke="black" stroke-width="5" stroke-linecap="round"/>
</svg>
