<svg width="20" height="20" viewBox="5 -10 28 50" fill="none" xmlns="http://www.w3.org/2000/svg">
<path d="M21.1678 3.72181C17.6619 3.72181 14.4229 4.90921 13.0376 8.90502C12.2351 11.2197 13.8846 13.4312 15.3605 14.877C17.5068 16.9795 20.1592 18.7284 23.112 18.3137C27.2951 17.7262 29.6736 13.328 27.5558 9.13038C25.1486 4.35905 19.011 1.90843 14.3506 3.46828" stroke="black" stroke-width="5" stroke-linecap="round"/>
<path d="M20.486 19.694C16.9999 19.694 13.5257 19.6885 10.096 20.4968C8.39063 20.8988 4.1669 21.5588 3.26617 23.6659C2.42315 25.638 3.73638 27.7567 5.05885 28.9477C8.62217 32.1569 13.1253 32.6239 17.5319 32.6239C20.688 32.6239 25.1872 32.7193 27.8714 30.4407C29.1794 29.3304 29.0249 26.7457 28.7425 25.1589C27.9934 20.9507 23.9476 18.3639 20.2588 19.1869" stroke="black" stroke-width="5" stroke-linecap="round"/>
</svg>
