<svg width="37" height="37" viewBox="0 0 37 41" fill="none" xmlns="http://www.w3.org/2000/svg">
<path d="M2.22965 11.8903C2.69342 12.181 3.14577 12.4622 3.62001 12.7257C3.8699 12.8645 4.07754 13.1835 4.28944 13.3837C4.94208 14 5.63708 14.5324 6.42933 14.9285C6.78547 15.1066 7.01143 15.3248 7.36768 14.9685C7.54027 14.796 7.4629 14.6499 7.54505 14.465C7.6424 14.246 7.22076 14.0956 7.07016 14.0245C6.62956 13.8164 6.10083 13.81 5.6283 13.7327C5.38816 13.6934 5.18099 13.7394 5.48526 13.9501C5.77711 14.1521 5.38418 13.6038 5.30789 13.5381C5.03397 13.3024 4.77157 13.0151 4.46681 12.8201C3.96474 12.4987 3.33135 12.4051 2.82184 12.122C2.69752 12.053 2.56408 12.1274 2.46137 11.9904C2.37134 11.8704 2.33264 11.8062 2.33264 11.6586C2.33264 11.1837 2.90127 10.636 3.28529 10.4227C3.99049 10.0309 4.82069 10.4946 5.42518 10.8347C6.01812 11.1682 6.51563 11.6485 7.12165 11.9818C7.50409 12.1922 7.97559 12.4414 8.29459 12.7485C8.61223 13.0544 8.96398 13.1225 9.34737 12.9602C9.51174 12.8907 9.64782 12.6127 9.74789 12.4682C9.8452 12.3276 10.0132 12.1436 10.1484 12.0448C10.4583 11.8183 10.6436 11.4499 10.9838 11.2609C11.3548 11.0548 11.6041 10.7418 12.0251 10.5915C12.4044 10.456 12.8176 10.1478 13.158 9.9335C13.4644 9.74057 13.7998 9.6126 14.1249 9.4586C14.4297 9.31425 14.789 9.24415 15.0776 9.08384C15.48 8.8603 16.0449 9.0208 16.4651 8.90074C16.6962 8.83472 16.5591 8.4379 16.6997 8.31141C16.8567 8.17007 16.8027 7.64469 16.8027 7.436C16.8027 7.19569 16.8027 6.95538 16.8027 6.71507C16.8027 6.44571 16.8027 6.94487 16.8027 7.02118C16.8027 7.32203 16.7486 7.03618 16.6968 6.89817C16.482 6.32524 16.5452 5.70395 16.5452 5.08155C16.5452 4.55605 16.516 4.02136 16.5452 3.49665C16.5665 3.1134 16.9181 2.53655 17.2661 2.35232C17.4595 2.24993 17.7045 1.91391 17.9356 1.90031C18.1538 1.88747 18.3666 1.84882 18.605 1.84882C19.1666 1.84882 19.7562 1.92435 20.1727 2.34088C20.6842 2.85234 20.8568 3.82672 20.639 4.52368C20.5457 4.82239 20.5618 5.21996 20.5618 5.53356C20.5618 5.87495 20.5618 6.21634 20.5618 6.55773C20.5618 6.9503 20.6133 7.32916 20.6133 7.71922C20.6133 7.98632 20.5564 8.32496 20.6648 8.56889C20.7391 8.73617 20.73 8.74912 20.9223 8.74912C21.1111 8.74912 21.2999 8.74912 21.4887 8.74912C21.8095 8.74912 22.2262 8.67358 22.5186 8.81206C22.6375 8.86836 22.8518 8.88913 22.982 8.9036C23.1059 8.91736 23.282 9.01353 23.394 9.06953C23.7279 9.2365 24.044 9.40204 24.3724 9.58448C24.5306 9.67235 24.6169 9.88539 24.7844 9.97355C24.9583 10.0651 25.1406 10.1977 25.2879 10.334C25.5725 10.5975 25.9507 10.7394 26.2262 11.0149C26.4397 11.2283 26.7031 11.4766 26.8556 11.7358C26.9182 11.8423 27.0969 11.9735 27.2046 12.0333C27.3742 12.1276 27.4994 12.4108 27.6166 12.5712C27.8589 12.9027 28.2961 13.0232 28.6865 13.0232C29.102 13.0232 29.4829 12.5472 29.7536 12.2765C29.9011 12.129 30.1053 12.0459 30.2686 11.9189C30.4021 11.8151 30.5692 11.691 30.7292 11.6328C30.8429 11.5915 31.0812 11.4215 31.144 11.3239C31.2401 11.1744 31.5111 11.1077 31.6561 10.9891C31.7734 10.8931 31.9012 10.8207 32.0194 10.7288C32.1473 10.6293 32.3095 10.6475 32.4313 10.5257C32.6389 10.3182 32.9571 10.3342 33.2181 10.2539C33.7377 10.094 34.6111 9.99854 34.9803 10.5114C35.0474 10.6046 35.2771 10.8018 35.2893 10.9119C35.3126 11.1212 35.293 11.2616 35.3694 11.4669C35.4842 11.7754 35.4304 12.3943 35.2578 12.6627C35.0188 13.0345 34.7353 13.3769 34.3595 13.6211C33.7923 13.9898 33.238 14.3787 32.6631 14.7483C32.2378 15.0216 31.8168 15.3674 31.4215 15.678C31.1638 15.8805 30.9131 16.009 30.6805 16.2416C30.5156 16.4065 30.1398 16.7119 30.1398 16.9625C30.1398 17.2881 30.2732 17.5757 30.3429 17.8894C30.5112 18.6468 30.7872 19.3882 30.8093 20.181C30.8222 20.6453 30.8608 21.1026 30.8608 21.5713C30.8608 21.8129 30.8503 22.0563 30.7978 22.2923C30.7602 22.4614 30.8114 22.7042 30.7463 22.8587C30.6774 23.0225 30.6512 23.2136 30.5918 23.3851C30.5169 23.6015 30.3713 23.8136 30.3458 24.0431C30.3337 24.1525 30.2208 24.3889 30.3058 24.4951C30.4764 24.7084 30.712 24.9786 30.9294 25.1416C31.286 25.409 31.7351 25.5654 32.0966 25.834C32.3099 25.9924 32.5557 26.0913 32.7661 26.2459C32.9922 26.4122 33.2744 26.4857 33.487 26.6693C33.7354 26.8839 34.0793 27.1322 34.3624 27.2987C34.4658 27.3595 34.4734 27.4795 34.5455 27.5647C34.6264 27.6604 34.7659 27.7272 34.8659 27.8022C34.9741 27.8833 35.0504 28.0222 35.1119 28.1398C35.187 28.2831 35.3232 28.3718 35.4209 28.4974C35.5359 28.6452 35.5468 28.752 35.5468 28.9379C35.5468 29.2456 35.396 29.3627 35.3151 29.6417C35.1629 30.1658 35.0908 30.609 34.5855 30.8919C34.3009 31.0513 33.9516 31.0879 33.6415 31.1751C33.3818 31.2481 33.038 31.3553 32.7661 31.3553C32.1303 31.3553 31.5654 31.0596 31.0181 30.7631C30.3738 30.4141 29.899 29.821 29.376 29.3242C29.0402 29.0052 28.7256 28.4853 28.2631 28.3171C28.0237 28.2301 28.064 27.9676 27.9198 28.2456C27.7893 28.4973 27.6616 28.6752 27.4592 28.8607C27.2234 29.0768 27.0685 29.3894 26.8156 29.5816C26.3533 29.9329 25.9414 30.2955 25.4538 30.6058C24.6116 31.1418 23.7512 31.5491 22.8104 31.8588C22.3553 32.0087 21.8838 32.1109 21.4372 32.2822C21.2762 32.344 20.8776 32.352 20.7792 32.5397C20.4579 33.1532 20.4267 34.0753 20.4073 34.754C20.3893 35.385 20.5618 36.0123 20.5618 36.6364C20.5618 37.6028 20.3124 38.5279 19.6864 39.297C19.2259 39.8628 18.596 39.6558 18.0786 39.297C17.65 38.9997 16.8769 38.9133 16.6253 38.4101C16.0217 37.203 16.4286 35.7935 16.159 34.4994C16.0285 33.8729 16.1332 33.1306 16.1332 32.4911C16.1332 32.1263 16.1205 32.1278 15.747 32.1278C15.5552 32.1278 15.3566 32.1425 15.1663 32.1163C14.9006 32.0798 14.6444 31.9137 14.3824 31.8417C13.513 31.6026 12.6942 31.1572 11.8878 30.7689C11.488 30.5764 11.0558 30.4413 10.6548 30.2482C10.3757 30.1138 10.1377 29.875 9.90237 29.6789C9.72575 29.5317 9.48781 29.3373 9.36168 29.1411C9.26203 28.9861 9.21821 28.7948 9.10706 28.6519C8.98284 28.4921 8.99452 28.3603 8.74088 28.4516C8.29433 28.6124 7.88628 28.939 7.45923 29.1525C6.71527 29.5245 6.00951 29.9462 5.33078 30.417C5.00435 30.6434 4.63103 30.6854 4.30088 30.8804C4.02226 31.0451 3.68308 31.0979 3.36253 31.0979C2.94612 31.0979 2.44863 31.1347 2.16671 30.766C1.86033 30.3654 1.79142 29.793 1.90923 29.2955C2.09654 28.5047 2.53794 27.9551 3.1165 27.4017C3.37733 27.1522 3.7119 26.9963 3.99191 26.7723C4.27105 26.549 4.53575 26.3497 4.84444 26.1658C5.11868 26.0024 5.4025 25.8681 5.66835 25.6909C5.87127 25.5556 6.1171 25.4921 6.29774 25.3304C6.4075 25.2322 6.58209 25.2035 6.70969 25.1359C6.83436 25.0699 6.66788 24.8761 6.63245 24.784C6.27819 23.863 6.24479 22.841 5.98591 21.8917C5.87885 21.4992 5.6798 21.118 5.6798 20.6902C5.6798 20.108 5.73129 19.5189 5.73129 18.9451C5.73129 18.6639 5.83501 18.2879 5.91152 18.0125C5.99362 17.7169 5.98291 17.3904 6.06601 17.0913C6.1944 16.6291 6.32353 16.2104 6.54949 15.7867C6.6083 15.6765 6.84283 15.4603 6.64676 15.4463C6.35568 15.4255 6.05121 15.4368 5.77993 15.3147C5.30497 15.101 4.92987 14.8077 4.54691 14.465C4.44473 14.3736 4.20049 14.2134 4.07202 14.1675C3.81656 14.0763 3.72001 13.9441 3.50557 13.7956C3.07983 13.5009 2.79178 13.0376 2.43563 12.6627C1.96412 12.1664 1.89293 11.2333 2.48712 10.8089C3.28114 10.2418 4.68277 10.0179 5.44521 10.7803C5.61604 10.9511 5.91176 11.116 6.14039 11.1951C6.37765 11.2773 6.53365 11.4797 6.7383 11.6099C7.0189 11.7885 7.58381 11.8877 7.73959 12.1993" stroke="black"/>
<path d="M3.46548 11.0664C3.47283 11.0578 3.78487 10.6683 3.8145 10.7002C3.86534 10.7549 3.7867 10.9968 3.77445 11.0549C3.74559 11.192 3.77295 11.3536 3.62855 11.3811C3.55517 11.395 3.01881 11.5932 3.22518 11.5785C3.34994 11.5696 3.84657 11.4274 3.88889 11.5642C3.95695 11.7841 4.08842 11.9418 4.32945 11.9418C4.47394 11.9418 4.54842 11.8388 4.36378 11.8388C3.96402 11.8388 3.84027 12.0734 3.98043 12.3537" stroke="black"/>
<path d="M4.59837 11.5813C4.65993 11.6161 5.35167 12.0491 5.40799 11.9647C5.42931 11.9327 5.33995 11.9286 5.30786 11.9075C5.17761 11.8216 5.07597 11.6946 4.95884 11.5928C4.55062 11.2378 4.8754 11.5739 5.0933 11.7415C5.16023 11.793 5.94516 12.3631 5.91435 12.4453C5.90783 12.4627 4.77699 11.8886 4.68992 11.8445C4.42857 11.7122 4.05574 11.5652 3.90033 11.2952C3.83488 11.1816 4.1573 11.4682 4.20644 11.5041C4.32206 11.5885 4.4519 11.6923 4.54688 11.7873" stroke="black"/>
<path d="M19.2744 18.4816C18.571 18.2652 18.1387 18.8136 17.9041 19.4486C17.8075 19.71 17.7351 20.0015 17.9413 20.2296C18.2377 20.5575 18.7681 20.7018 19.1943 20.6158C20.0772 20.4376 20.8598 19.571 20.3701 18.679C19.625 17.3219 17.4064 16.8706 16.2534 17.961C15.2497 18.9102 15.4151 20.5031 16.7226 21.0507C18.166 21.6552 19.4739 20.1769 19.7207 18.8678C19.9852 17.465 18.9975 16.027 17.4664 16.4218C16.2768 16.7286 15.3334 17.7855 14.7229 18.7963C14.2073 19.6498 13.7591 20.8475 14.5483 21.6915C15.5709 22.785 18.2121 22.8564 18.8424 21.3024C19.4358 19.8394 18.4988 17.9185 17.1517 17.1828C15.4658 16.262 14.9675 18.4863 14.9889 19.6975C15.0032 20.5021 15.2081 21.3955 16.0131 21.7544C17.0406 22.2126 18.3733 22.1988 19.4232 21.8488C20.2744 21.5651 21.1014 21.009 21.5602 20.221C22.0327 19.4097 21.948 18.4194 21.6375 17.5662C21.4022 16.9197 20.9784 16.1629 20.2643 15.967C19.4332 15.739 18.3597 16.2024 17.6666 16.6164C16.7598 17.1581 16.0302 18.0039 15.6011 18.968C15.1499 19.9818 14.9513 21.3797 15.7499 22.2808C16.5792 23.2166 18.1032 23.6178 19.303 23.6941C20.4486 23.7668 21.6626 23.4958 22.4785 22.6413C24.0104 21.037 23.5695 18.5349 22.4614 16.8395C22.0339 16.1854 21.4575 15.4684 20.6705 15.2432C19.7225 14.9719 18.8476 15.4289 18.1301 16.0127C16.5241 17.3196 14.631 19.9789 15.5496 22.1664C16.0787 23.4262 17.4008 24.2077 18.6336 24.6324C19.8763 25.0605 21.2551 25.1196 22.427 24.4436C24.1759 23.4348 24.5402 21.2671 23.8489 19.5029C23.1531 17.7275 21.7395 15.8882 19.6177 16.0385C18.8688 16.0916 18.2451 16.4607 17.6952 16.9482C16.8225 17.722 15.9998 18.6145 15.2121 19.4743C14.7561 19.9721 14.1039 20.6634 14.2165 21.4111C14.3298 22.1634 14.9928 22.8048 15.5954 23.1991C16.9395 24.0786 18.7149 24.3517 19.8409 23.0132C21.2483 21.3401 21.4876 18.8803 20.4388 16.9768C19.6674 15.5769 17.8825 13.593 16.0417 14.0931C15.339 14.2841 14.8278 14.9217 14.4139 15.4778C13.9905 16.0466 13.5863 16.6528 13.2438 17.2744C13.0828 17.5666 12.8682 17.8978 12.7346 18.1984C12.654 18.3796 12.312 18.6311 12.1653 18.7649C11.9253 18.9837 11.6915 19.2063 11.4472 19.42C11.1847 19.6497 11.0179 19.9741 10.7148 20.1581C10.5848 20.237 10.3029 20.181 10.1598 20.181C9.91816 20.181 9.68858 20.1823 9.45036 20.1409C8.96348 20.0562 8.82388 20.4866 8.58925 20.8475C8.46688 21.0358 8.45682 20.9366 8.30603 20.9534C8.15703 20.9699 8.20304 21.365 8.20304 21.4626C8.20304 21.8866 8.04856 21.035 8.04856 21.2624C8.04856 21.5111 7.97817 21.3665 7.92268 21.208C7.85361 21.0107 7.86353 20.7887 7.77964 20.5929C7.67403 20.3465 7.65685 20.0054 7.71384 19.7433C7.85515 19.0932 8.15669 18.3884 8.53776 17.8379C8.99018 17.1844 9.27078 16.3202 9.92526 15.8153C10.5685 15.3192 11.0903 14.6535 11.7562 14.1675C12.5119 13.616 13.2699 13.0697 14.1021 12.637C14.3406 12.513 14.5232 12.3686 14.7429 12.2222C15.0327 12.029 15.3916 11.933 15.7098 11.7988C16.2307 11.579 16.8048 11.3429 17.3691 11.2724C17.8781 11.2087 18.4004 11.1694 18.914 11.1694C19.5777 11.1694 20.1759 11.2545 20.8307 11.3353C21.8281 11.4584 22.8077 11.7358 23.5742 12.4024C23.773 12.5752 23.9524 12.7359 24.0749 12.9717C24.1947 13.2025 24.354 13.3038 24.5212 13.4895C24.6875 13.6743 24.787 13.9422 24.9389 14.1446C25.1301 14.3996 25.3237 14.7349 25.4424 15.0315C25.5479 15.2953 25.6721 15.5275 25.8429 15.7553C26.028 16.0022 26.1232 16.2845 26.2777 16.5506C26.5669 17.0486 26.8238 17.5464 27.1531 18.0182C27.3274 18.2679 27.3898 18.4806 27.4907 18.7649C27.5946 19.0576 27.7899 19.3201 27.8741 19.6145C28.0129 20.1004 28.2298 20.5466 28.3661 21.0335C28.6613 22.0878 28.5077 23.3334 28.3776 24.4035C28.2654 25.3254 27.8911 26.3786 26.9471 26.7494C26.5403 26.9092 26.1484 27.2146 25.7742 27.4417C25.6322 27.5279 25.4514 27.5459 25.2993 27.622C25.1025 27.7204 24.9102 27.8453 24.7071 27.9281C24.484 28.019 24.2724 28.128 24.052 28.2256C23.7934 28.3401 23.4748 28.4249 23.2395 28.5746C22.6753 28.9337 21.963 28.95 21.3342 29.1296C20.7304 29.3021 20.2059 29.3985 19.5834 29.3985C18.9766 29.3985 18.3468 29.4554 17.7553 29.2955C17.1335 29.1275 16.4608 29.1633 15.8243 29.0638C15.2686 28.977 14.6687 28.9795 14.1249 28.8435C13.6169 28.7165 12.9565 28.6176 12.5 28.3658C11.9587 28.0671 11.5175 27.6452 10.9952 27.3273C10.4646 27.0043 10.1449 26.4267 9.77649 25.9484C9.5016 25.5915 9.25005 25.1909 8.95544 24.8527C8.7886 24.6611 8.59864 24.5638 8.48912 24.3292C8.29674 23.9169 8.30332 23.3091 8.36897 22.8759C8.48657 22.0997 9.38295 21.5125 9.9367 22.2665C10.2364 22.6746 10.4786 23.1244 10.7692 23.5396C11.2188 24.1818 11.6876 24.8053 12.1166 25.462C12.4825 26.0221 12.9345 26.5654 13.5156 26.9182C14.0053 27.2155 14.9556 27.2509 15.4924 27.0584C15.8569 26.9276 16.0296 26.5863 16.2248 26.2802C16.6121 25.6728 16.7172 25.1984 16.754 24.4808C16.7643 24.2811 16.8779 23.8009 16.9457 24.2605C16.9725 24.442 16.905 24.6601 17.0087 24.8155" stroke="black" stroke-width="5"/>
<path d="M22.3126 25.7424C20.6395 25.4 18.9364 25.2532 17.229 25.2847C16.3168 25.3015 15.4093 25.3819 14.4969 25.3819C14.1257 25.3819 13.7396 25.3512 13.3697 25.3848C13.1588 25.404 13.5214 25.7709 13.57 25.8053C14.1389 26.2089 15.0872 26.0535 15.7242 25.9655C16.4769 25.8615 17.3934 25.7878 18.0672 25.4048C18.3483 25.245 18.3159 24.9896 18.2875 24.6953C18.2395 24.1996 18.1195 23.7187 18.0901 23.2191" stroke="black" stroke-width="5"/>
<path d="M9.69637 15.1345C9.40618 14.9808 9.15056 14.7796 8.86387 14.6224C8.56254 14.4571 8.23898 14.3377 7.93983 14.1675C7.59735 13.9727 7.28615 13.6943 6.94426 13.5153C6.58409 13.3266 6.25282 13.0552 5.86287 12.9202C4.96639 12.6099 4.10212 12.1056 3.25952 11.6843" stroke="black" stroke-width="5"/>
<path d="M10.4173 15.4949C9.66712 15.3985 8.9545 15.2759 8.32893 14.8255C7.91803 14.5297 7.50965 14.1764 7.08161 13.91C6.74491 13.7005 6.39389 13.491 6.09462 13.2292C5.85314 13.0179 5.59939 12.7668 5.31934 12.6112C4.95657 12.4097 4.66637 11.9767 4.278 11.8274C4.03216 11.7328 3.79627 11.5841 3.54277 11.5069C3.36348 11.4524 3.15727 11.4273 3.00208 11.3239" stroke="black" stroke-width="5" stroke-linecap="round"/>
<path d="M20.6133 12.9717C20.4296 12.8816 20.2397 12.7785 20.0469 12.7142" stroke="black" stroke-width="5" stroke-linecap="round"/>
<path d="M19.0685 12.9717C18.0617 10.9581 18.4745 8.51161 18.502 6.34029C18.514 5.39551 18.811 4.48032 18.811 3.54813" stroke="black" stroke-width="5" stroke-linecap="round"/>
<path d="M25.4023 16.6793C26.2801 16.1307 27.1607 15.6148 27.9685 14.9657C28.3588 14.6521 28.7653 14.3682 29.1901 14.1046C29.7596 13.7511 30.3311 13.373 30.9151 13.0518C31.5772 12.6877 32.2062 12.2218 32.8691 11.8903" stroke="black" stroke-width="5" stroke-linecap="round"/>
<path d="M25.7627 24.6095C26.1883 24.8662 26.5739 25.1531 27.0329 25.3533C27.6762 25.6339 28.3493 25.7808 29.0126 25.9999C29.6382 26.2064 30.1964 26.5283 30.7863 26.8123C31.0035 26.9169 31.1208 27.0773 31.3241 27.2128C31.4834 27.319 31.7366 27.3908 31.8648 27.519C32.1419 27.796 32.3998 28.1573 32.7889 28.2685C33.0147 28.333 33.2891 28.2902 33.3839 28.5746" stroke="black" stroke-width="5" stroke-linecap="round"/>
<path d="M18.296 29.862C18.2092 30.3726 18.1525 30.8879 18.2044 31.4068C18.2497 31.8598 18.3989 32.288 18.3989 32.7457C18.3989 33.3761 18.4917 34.0056 18.5019 34.6396C18.5064 34.9149 18.5534 35.1852 18.5534 35.4635C18.5534 35.7021 18.5253 35.9543 18.5935 36.1844C18.6681 36.4364 18.5717 36.7143 18.6564 36.9683" stroke="black" stroke-width="5" stroke-linecap="round"/>
<path d="M10.0054 25.382C9.68419 26.0587 9.14974 26.325 8.53489 26.6693C8.17399 26.8714 7.7477 26.9119 7.37912 27.0927C7.00747 27.275 6.66577 27.4895 6.29772 27.6735C5.96793 27.8384 5.65501 27.968 5.37368 28.2142C5.06772 28.4819 4.67238 28.6643 4.36095 28.9065C4.29627 28.9568 4.05358 29.0855 3.98046 29.0896C3.80492 29.0993 3.77108 29.2441 3.62 29.2441" stroke="black" stroke-width="5" stroke-linecap="round"/>
<path d="M15.8757 29.759C15.9945 30.3675 16.1498 30.4284 16.7511 30.4284C17.3468 30.4284 17.8897 30.3254 18.4762 30.3254C18.9831 30.3254 19.5692 30.4 20.0726 30.3226C20.2907 30.289 20.4913 30.2802 20.7162 30.2739C20.9299 30.268 21.1357 30.1341 21.3342 30.0679" stroke="black" stroke-width="5" stroke-linecap="round"/>
<path d="M28.5949 20.6444C28.8395 20.0177 28.7161 19.2822 28.4519 18.6876C28.3502 18.4588 28.043 18.3454 27.8282 18.2127C27.6297 18.0901 27.4301 17.9792 27.2303 17.8608C26.9658 17.7041 26.8093 17.4382 26.5752 17.2457C26.139 16.8871 25.693 16.3823 25.6197 15.8039C25.5672 15.3896 25.548 14.8531 25.7227 14.465C25.7588 14.3847 25.849 14.2504 25.7341 14.2648C25.0394 14.3516 24.4034 14.6472 23.7659 14.917C22.4575 15.4708 20.988 15.9219 19.8408 16.7823" stroke="black" stroke-width="5" stroke-linecap="round"/>
<path d="M27.6681 25.8969C28.0219 26.1487 28.3775 26.3917 28.6923 26.6922C28.8335 26.827 28.9708 26.9672 29.1586 27.0297C29.2767 27.0691 29.3956 27.2078 29.5248 27.2643C29.7498 27.3628 29.9783 27.4188 30.1942 27.5447C30.7304 27.8575 31.38 28.0399 31.9422 28.3057C32.424 28.5335 32.9852 28.6133 33.487 28.7806" stroke="black" stroke-width="5" stroke-linecap="round"/>
<path d="M18.296 10.7574C18.296 10.1342 18.399 9.49877 18.399 8.8807C18.399 8.50327 18.502 8.12901 18.502 7.74782C18.502 7.19089 18.4505 6.61204 18.4505 6.07138C18.4505 5.58218 18.4505 5.09298 18.4505 4.60378C18.4505 4.36261 18.502 4.0996 18.502 3.84566C18.502 3.55903 18.4635 3.25155 18.5535 2.98169" stroke="black" stroke-width="5" stroke-linecap="round"/>
<path d="M11.1897 16.0614C10.5405 15.6369 9.78289 15.374 9.12995 14.9542C8.78551 14.7328 8.38905 14.3712 8.0085 14.219C7.70961 14.0994 7.44072 13.7717 7.12451 13.6926C6.95674 13.6507 6.77816 13.4795 6.6067 13.4094C6.40352 13.3263 6.19847 13.1975 5.98876 13.1376C5.32236 12.9472 4.68518 12.7847 4.0949 12.4052C3.79177 12.2104 3.48594 12.1224 3.23379 11.8703C3.0748 11.7113 2.75408 11.7033 2.6416 11.4783" stroke="black" stroke-width="5" stroke-linecap="round"/>
<circle cx="18" cy="20" r="14" fill="black"/>
</svg>
