<?xml version="1.0" standalone="no"?>
<!DOCTYPE svg PUBLIC "-//W3C//DTD SVG 20010904//EN"
 "http://www.w3.org/TR/2001/REC-SVG-20010904/DTD/svg10.dtd">
<svg version="1.0" xmlns="http://www.w3.org/2000/svg"
 width="512.000000pt" height="512.000000pt" viewBox="0 0 512.000000 512.000000"
 preserveAspectRatio="xMidYMid meet">

<g transform="translate(0.000000,512.000000) scale(0.100000,-0.100000)"
fill="#000000" stroke="none">
<path d="M3143 3521 c-29 -26 -87 -67 -129 -91 -156 -89 -313 -126 -500 -118
l-104 5 0 -256 c0 -234 2 -258 19 -285 25 -37 69 -66 104 -66 l27 0 0 -149 0
-148 68 -6 c173 -15 337 -118 438 -273 21 -33 39 -60 40 -62 1 -2 32 6 69 17
73 23 186 28 244 11 19 -5 36 -8 38 -6 2 2 22 92 44 202 65 317 180 759 248
957 l20 57 -50 0 c-161 0 -387 104 -499 231 l-25 28 -52 -48z"/>
<path d="M2930 1338 c-78 -66 -238 -127 -332 -128 l-38 0 0 -305 0 -305 -27 0
c-35 0 -79 -29 -104 -66 -15 -24 -19 -48 -19 -131 l0 -103 450 0 450 0 0 178
c0 165 10 406 26 635 l7 97 -50 0 c-97 0 -199 42 -279 113 l-49 45 -35 -30z"/>
</g>
</svg>
