<svg width="37" height="37" viewBox="0 0 40 56" fill="none" xmlns="http://www.w3.org/2000/svg">
<path d="M11.4993 54.0001C11.4993 52.8569 11.4993 52.2548 11.4993 37.5001M11.4993 37.5001C11.4993 31.605 10.7741 8.39373 11.4993 6.0001C12.2246 3.60647 37.7387 21.1276 36.4993 23.0001C35.26 24.8726 11.918 38.3795 11.4993 37.5001Z" stroke="black" stroke-width="5"/>
<path d="M12.4993 7.50005L23.9994 14.0001L35.9994 22L24.4994 29.5001L11.9994 35.5001L12.4993 7.50005Z" fill="black"/>
<path d="M3.61268 52C3.61268 52 17.2355 52 19.3862 52C21.5369 52 21.5369 56 19.3862 56C17.2355 56 3.61268 56 3.61268 56C1.46152 56 1.46141 52 3.61268 52Z" fill="black"/>
<path d="M25 41.3831C25 39.3502 25.286 38.6447 27.6667 37.6076C29.6667 36.7363 30.8445 36.861 32.6667 37.6076C35 38.7693 35.6117 39.241 36 41.0927C36 43.1256 35.6667 44.2873 33 45.449C33 45.449 30 46.1751 29.6667 46.3203C29.3333 46.4655 29.3333 50.3862 29.3333 50.3862M27 53C27 53 30.1667 53 31.5 53" stroke="black" stroke-width="4"/>
</svg>
