<svg width="37" height="37" viewBox="0 0 40 56" fill="none" xmlns="http://www.w3.org/2000/svg">
<path d="M11.5001 54.0001C11.5001 52.8569 11.5001 52.2548 11.5001 37.5001M11.5001 37.5001C11.5001 31.605 10.7748 8.39373 11.5001 6.0001C12.2253 3.60647 37.7394 21.1276 36.5001 23.0001C35.2607 24.8726 11.9188 38.3795 11.5001 37.5001Z" stroke="#ffffff" stroke-width="5"/>
<path d="M12.5001 7.50005L24.0001 14.0001L36.0001 22L24.5001 29.5001L12.0001 35.5001L12.5001 7.50005Z" fill="#ffffff"/>
<path d="M3.61341 52C3.61341 52 17.2362 52 19.387 52C21.5377 52 21.5377 56 19.387 56C17.2362 56 3.61341 56 3.61341 56C1.46225 56 1.46214 52 3.61341 52Z" fill="#ffffff"/>
</svg>
