<?xml version="1.0" standalone="no"?>
<!DOCTYPE svg PUBLIC "-//W3C//DTD SVG 20010904//EN"
 "http://www.w3.org/TR/2001/REC-SVG-20010904/DTD/svg10.dtd">
<svg version="1.0" xmlns="http://www.w3.org/2000/svg"
 width="512.000000pt" height="512.000000pt" viewBox="0 0 512.000000 512.000000"
 preserveAspectRatio="xMidYMid meet">

<g transform="translate(0.000000,512.000000) scale(0.100000,-0.100000)"
fill="#000000" stroke="none">
<path d="M2463 5100 c-18 -10 -39 -33 -48 -50 -9 -16 -45 -137 -80 -268 -36
-130 -69 -247 -74 -258 -7 -16 -22 -23 -58 -28 -26 -4 -93 -18 -148 -32 -329
-83 -622 -240 -874 -466 l-64 -58 -31 19 c-115 69 -392 223 -426 237 -77 31
-153 -3 -166 -73 -10 -51 13 -98 165 -355 l138 -231 -43 -76 c-85 -152 -165
-374 -199 -556 -9 -50 -18 -100 -21 -112 -3 -18 -11 -23 -33 -23 -34 0 -361
-83 -412 -104 -71 -30 -101 -88 -76 -148 11 -27 28 -42 68 -61 60 -29 357
-107 407 -107 38 0 36 4 52 -119 25 -192 98 -425 190 -604 22 -44 40 -83 40
-87 0 -4 -58 -105 -129 -224 -71 -119 -135 -232 -141 -252 -26 -78 23 -154 98
-154 46 0 95 23 296 139 87 50 163 91 170 91 6 0 36 -25 66 -56 250 -256 652
-468 1012 -535 62 -11 120 -24 128 -28 9 -5 35 -83 68 -202 64 -232 80 -272
124 -299 46 -28 81 -25 121 10 41 36 52 64 113 290 26 96 51 180 56 186 4 6
39 14 76 18 192 20 438 93 637 190 194 95 332 190 493 337 l83 77 184 -105
c119 -68 198 -107 224 -110 77 -10 131 34 131 107 0 39 -31 101 -153 308 -54
90 -97 166 -97 170 0 3 24 53 54 111 115 226 173 416 211 694 6 45 8 47 38 47
30 0 237 50 350 84 105 32 151 90 127 161 -8 24 -24 42 -53 59 -47 28 -374
116 -429 116 l-35 0 -22 116 c-39 205 -129 449 -235 630 l-36 61 121 204 c67
112 130 222 140 244 45 97 3 185 -90 185 -42 0 -91 -24 -300 -143 l-184 -106
-51 45 c-234 207 -516 362 -811 443 -106 29 -265 61 -309 61 -11 0 -26 4 -33
8 -7 4 -42 117 -78 250 -74 277 -89 312 -142 340 -31 17 -64 15 -100 -8z m173
-739 c105 -389 108 -404 89 -417 -29 -22 -397 -20 -419 2 -19 19 -27 -17 89
414 52 190 99 365 105 390 8 30 14 40 19 30 5 -8 57 -197 117 -419z m-1500
-625 c260 -148 380 -221 382 -233 3 -22 -267 -296 -297 -301 -10 -2 -23 4 -30
12 -15 18 -441 736 -436 736 1 0 173 -97 381 -214z m3166 182 c-11 -18 -109
-184 -217 -368 -109 -184 -202 -338 -209 -342 -25 -17 -45 -2 -173 125 -149
147 -162 163 -141 183 11 12 747 434 756 434 2 0 -5 -15 -16 -32z m-1663
-1132 c81 -39 141 -136 141 -227 0 -95 -69 -198 -159 -237 -52 -22 -146 -20
-201 5 -51 23 -104 72 -127 117 -22 42 -28 137 -13 191 14 50 76 127 122 151
71 37 162 37 237 0z m-1263 -1011 c112 -105 135 -132 132 -152 -3 -22 -50 -53
-338 -217 -184 -105 -352 -202 -372 -214 -21 -13 -38 -21 -38 -17 0 14 414
711 432 727 13 12 25 15 35 10 8 -5 75 -66 149 -137z m2503 131 c18 -21 432
-728 429 -731 -7 -6 -743 423 -752 438 -9 15 11 39 135 162 81 80 153 145 162
145 8 0 20 -6 26 -14z m-1155 -732 c11 -10 14 -25 10 -42 -13 -58 -205 -768
-213 -787 l-8 -20 -6 20 c-26 83 -217 792 -217 805 0 37 19 40 221 40 166 0
200 -2 213 -16z"/>
</g>
</svg>
